# xmcd
#
# Track frame offsets: 
#        150
#        11714
#        22022
#        32642
#        44159
#        54564
#        66396
#        77133
#        86967
#        97041
#        109108
#        120167
#        130575
#        142588
#        152376
#        166970
#        178650
#        189669
#        200654
#        212427
#        229257
#        241235
#        252252
#        263819
#
# Disc length: 3686 seconds
#
# Revision: 2
# Processed by: cddbd v1.5.2PL0 Copyright (c) Steve Scherf et al.
# Submitted via: ExactAudioCopyFreeDBPlugin 1.0
#
DISCID=4a0e6418
DTITLE=Roy Acuff - Once More It's Roy Acuff and King Of Country Music
DYEAR=2003
DGENRE=Country
TTITLE0=Once More
TTITLE1=Searchin' For Happiness
TTITLE2=I Don't Care (If You Don't Love Me)
TTITLE3=The One I Love (Is Gone)
TTITLE4=So Many Times
TTITLE5=Come And Knock (On The Door Of My Heart)
TTITLE6=They'll Never Take Her Love From Me
TTITLE7=(Today) My Love Came Back To Me
TTITLE8=Don't Know Why
TTITLE9=Nero Played His Fiddle
TTITLE10=Thanks For Not Telling Me
TTITLE11=Write Me Sweetheart
TTITLE12=The Great Speckled Bird
TTITLE13=Fireball Mail
TTITLE14=The Precious Jewel
TTITLE15=Pins And Needles (In My Heart)
TTITLE16=The Wreck On The Highway
TTITLE17=Unloved And Unclaimed
TTITLE18=Wabash Cannonball
TTITLE19=Don't Make Me Go To Bed And I'll Be Good
TTITLE20=The Old Age Pension Check
TTITLE21=Night Train To Memphis
TTITLE22=Beneath That Lonely Mound Of Clay
TTITLE23=The Automobile Of Life
EXTD=YEAR: 2004
EXTT0=
EXTT1=
EXTT2=
EXTT3=
EXTT4=
EXTT5=
EXTT6=
EXTT7=
EXTT8=
EXTT9=
EXTT10=
EXTT11=
EXTT12=
EXTT13=
EXTT14=
EXTT15=
EXTT16=
EXTT17=
EXTT18=
EXTT19=
EXTT20=
EXTT21=
EXTT22=
EXTT23=
PLAYORDER=
